<svg width="68" height="68" viewBox="0 0 68 68" fill="none" xmlns="http://www.w3.org/2000/svg">
<mask id="path-1-inside-1" fill="white">
<path d="M36.7565 67.9876H31.2173C29.1204 67.9876 27.4167 66.2839 27.4167 64.187V57.4421C25.3547 56.8655 23.3802 56.018 21.5367 54.9172L17.1857 59.2332C16.4692 59.941 15.5169 60.3341 14.5121 60.3341C13.4899 60.3341 12.5288 59.9321 11.8124 59.2158L7.90698 55.2841C6.43043 53.7988 6.43916 51.3874 7.92445 49.9109L12.4677 45.4025C11.6551 43.8648 10.9999 42.2485 10.5368 40.5797H3.80059C1.70371 40.571 0 38.8673 0 36.7704V31.2311C0 29.1342 1.70371 27.4305 3.80059 27.4305H10.5455C11.1222 25.3686 11.9697 23.4028 13.0705 21.5505L8.06424 16.5006C6.58769 15.0153 6.59643 12.6039 8.09045 11.1273L12.0221 7.22187C12.7385 6.51418 13.6821 6.12101 14.6956 6.12101C15.7178 6.12101 16.6789 6.52291 17.3953 7.23935L22.5939 12.4815C24.1316 11.6603 25.7566 11.0137 27.4254 10.5507V3.81445C27.4254 1.71757 29.1291 0.013855 31.226 0.013855H36.7653C38.8621 0.013855 40.5658 1.71757 40.5658 3.81445V10.5594C42.2958 11.0399 43.9733 11.7214 45.5634 12.5864L50.8056 7.38788C51.522 6.68018 52.4656 6.28701 53.4791 6.28701C54.5014 6.28701 55.4624 6.68892 56.1789 7.40535L60.0843 11.337C60.8007 12.0534 61.1851 13.0145 61.1851 14.028C61.1851 15.0415 60.7832 15.9938 60.0668 16.7102L55.0256 21.7165C56.0828 23.5164 56.8953 25.4385 57.4545 27.4393H64.1994C66.2963 27.4393 68 29.143 68 31.2399V36.7704C68 38.8673 66.2963 40.571 64.1994 40.571H57.4545C56.9739 42.3009 56.2924 43.9784 55.4276 45.5685L59.9358 50.1118C60.6523 50.8282 61.0367 51.7893 61.0367 52.8027C61.0367 53.8162 60.6348 54.7686 59.9184 55.485L55.9867 59.3904C55.2703 60.0981 54.3267 60.4913 53.3132 60.4913C52.291 60.4913 51.3299 60.0894 50.6135 59.373L46.3061 55.0307C44.5063 56.0879 42.5929 56.9004 40.5921 57.4596V64.2045C40.5571 66.2839 38.8534 67.9876 36.7565 67.9876ZM21.2833 52.7241L21.8687 53.0911C23.9219 54.3929 26.1498 55.3539 28.4913 55.9394L29.1466 56.1053V64.187C29.1466 65.3317 30.0728 66.2577 31.2173 66.2577H36.7565C37.9011 66.2577 38.8272 65.3316 38.8272 64.187V56.1053L39.4825 55.9394C41.7628 55.3715 43.9383 54.4453 45.9478 53.1873L46.5331 52.8203L51.8104 58.1411C52.2035 58.5342 52.719 58.7526 53.2782 58.7526C53.8286 58.7526 54.3441 58.543 54.7373 58.1585L58.6689 54.2531C59.0621 53.8687 59.2717 53.3445 59.2805 52.7941C59.2805 52.2349 59.0708 51.7194 58.6864 51.3262L53.252 45.8568L53.584 45.2889C54.6324 43.4629 55.4276 41.5233 55.9255 39.5051L56.0915 38.8498H64.1732C65.3177 38.8498 66.2439 37.9237 66.2439 36.7791V31.2399C66.2439 30.0953 65.3177 29.1692 64.1732 29.1692H56.0915L55.9255 28.5139C55.3576 26.2336 54.4315 24.0493 53.1733 22.0398L52.8065 21.4544L58.8175 15.4871C59.2107 15.1026 59.4203 14.5784 59.4291 14.028C59.4291 13.4688 59.2194 12.9533 58.835 12.5602L54.9296 8.62853C54.5364 8.23536 54.0209 8.01694 53.4617 8.01694C52.9112 8.01694 52.3958 8.22663 52.0027 8.61105L45.8343 14.7357L45.2663 14.4037C43.4491 13.3552 41.5007 12.5689 39.4826 12.0622L38.8273 11.8962V3.81445C38.8273 2.6699 37.9011 1.74378 36.7566 1.74378H31.2174C30.0728 1.74378 29.1467 2.6699 29.1467 3.81445V11.8962L28.4914 12.0622C26.5256 12.5514 24.6384 13.3116 22.8561 14.3163L22.2794 14.6396L16.1635 8.46252C15.7704 8.06936 15.2549 7.85093 14.6957 7.85093C14.1453 7.85093 13.6298 8.06062 13.2366 8.44505L9.30498 12.3505C8.49244 13.1543 8.49244 14.4648 9.29625 15.2774L15.2723 21.2972L14.9054 21.8825C13.6036 23.9357 12.6425 26.1637 12.0571 28.4964L11.8911 29.1517H3.80059C2.65605 29.1517 1.72992 30.0778 1.72992 31.2224V36.7704C1.72992 37.9149 2.65605 38.841 3.80059 38.841H11.8823L12.0483 39.4963C12.5376 41.4621 13.2977 43.3493 14.3025 45.1228L14.6257 45.6996L9.14763 51.134C8.33509 51.9377 8.33509 53.2482 9.13889 54.0609L13.0443 57.9925C13.4375 58.3857 13.953 58.6041 14.5121 58.6041C15.0626 58.6041 15.5781 58.3944 15.9712 58.0099L21.2833 52.7241Z"/>
</mask>
<path d="M36.7565 67.9876H31.2173C29.1204 67.9876 27.4167 66.2839 27.4167 64.187V57.4421C25.3547 56.8655 23.3802 56.018 21.5367 54.9172L17.1857 59.2332C16.4692 59.941 15.5169 60.3341 14.5121 60.3341C13.4899 60.3341 12.5288 59.9321 11.8124 59.2158L7.90698 55.2841C6.43043 53.7988 6.43916 51.3874 7.92445 49.9109L12.4677 45.4025C11.6551 43.8648 10.9999 42.2485 10.5368 40.5797H3.80059C1.70371 40.571 0 38.8673 0 36.7704V31.2311C0 29.1342 1.70371 27.4305 3.80059 27.4305H10.5455C11.1222 25.3686 11.9697 23.4028 13.0705 21.5505L8.06424 16.5006C6.58769 15.0153 6.59643 12.6039 8.09045 11.1273L12.0221 7.22187C12.7385 6.51418 13.6821 6.12101 14.6956 6.12101C15.7178 6.12101 16.6789 6.52291 17.3953 7.23935L22.5939 12.4815C24.1316 11.6603 25.7566 11.0137 27.4254 10.5507V3.81445C27.4254 1.71757 29.1291 0.013855 31.226 0.013855H36.7653C38.8621 0.013855 40.5658 1.71757 40.5658 3.81445V10.5594C42.2958 11.0399 43.9733 11.7214 45.5634 12.5864L50.8056 7.38788C51.522 6.68018 52.4656 6.28701 53.4791 6.28701C54.5014 6.28701 55.4624 6.68892 56.1789 7.40535L60.0843 11.337C60.8007 12.0534 61.1851 13.0145 61.1851 14.028C61.1851 15.0415 60.7832 15.9938 60.0668 16.7102L55.0256 21.7165C56.0828 23.5164 56.8953 25.4385 57.4545 27.4393H64.1994C66.2963 27.4393 68 29.143 68 31.2399V36.7704C68 38.8673 66.2963 40.571 64.1994 40.571H57.4545C56.9739 42.3009 56.2924 43.9784 55.4276 45.5685L59.9358 50.1118C60.6523 50.8282 61.0367 51.7893 61.0367 52.8027C61.0367 53.8162 60.6348 54.7686 59.9184 55.485L55.9867 59.3904C55.2703 60.0981 54.3267 60.4913 53.3132 60.4913C52.291 60.4913 51.3299 60.0894 50.6135 59.373L46.3061 55.0307C44.5063 56.0879 42.5929 56.9004 40.5921 57.4596V64.2045C40.5571 66.2839 38.8534 67.9876 36.7565 67.9876ZM21.2833 52.7241L21.8687 53.0911C23.9219 54.3929 26.1498 55.3539 28.4913 55.9394L29.1466 56.1053V64.187C29.1466 65.3317 30.0728 66.2577 31.2173 66.2577H36.7565C37.9011 66.2577 38.8272 65.3316 38.8272 64.187V56.1053L39.4825 55.9394C41.7628 55.3715 43.9383 54.4453 45.9478 53.1873L46.5331 52.8203L51.8104 58.1411C52.2035 58.5342 52.719 58.7526 53.2782 58.7526C53.8286 58.7526 54.3441 58.543 54.7373 58.1585L58.6689 54.2531C59.0621 53.8687 59.2717 53.3445 59.2805 52.7941C59.2805 52.2349 59.0708 51.7194 58.6864 51.3262L53.252 45.8568L53.584 45.2889C54.6324 43.4629 55.4276 41.5233 55.9255 39.5051L56.0915 38.8498H64.1732C65.3177 38.8498 66.2439 37.9237 66.2439 36.7791V31.2399C66.2439 30.0953 65.3177 29.1692 64.1732 29.1692H56.0915L55.9255 28.5139C55.3576 26.2336 54.4315 24.0493 53.1733 22.0398L52.8065 21.4544L58.8175 15.4871C59.2107 15.1026 59.4203 14.5784 59.4291 14.028C59.4291 13.4688 59.2194 12.9533 58.835 12.5602L54.9296 8.62853C54.5364 8.23536 54.0209 8.01694 53.4617 8.01694C52.9112 8.01694 52.3958 8.22663 52.0027 8.61105L45.8343 14.7357L45.2663 14.4037C43.4491 13.3552 41.5007 12.5689 39.4826 12.0622L38.8273 11.8962V3.81445C38.8273 2.6699 37.9011 1.74378 36.7566 1.74378H31.2174C30.0728 1.74378 29.1467 2.6699 29.1467 3.81445V11.8962L28.4914 12.0622C26.5256 12.5514 24.6384 13.3116 22.8561 14.3163L22.2794 14.6396L16.1635 8.46252C15.7704 8.06936 15.2549 7.85093 14.6957 7.85093C14.1453 7.85093 13.6298 8.06062 13.2366 8.44505L9.30498 12.3505C8.49244 13.1543 8.49244 14.4648 9.29625 15.2774L15.2723 21.2972L14.9054 21.8825C13.6036 23.9357 12.6425 26.1637 12.0571 28.4964L11.8911 29.1517H3.80059C2.65605 29.1517 1.72992 30.0778 1.72992 31.2224V36.7704C1.72992 37.9149 2.65605 38.841 3.80059 38.841H11.8823L12.0483 39.4963C12.5376 41.4621 13.2977 43.3493 14.3025 45.1228L14.6257 45.6996L9.14763 51.134C8.33509 51.9377 8.33509 53.2482 9.13889 54.0609L13.0443 57.9925C13.4375 58.3857 13.953 58.6041 14.5121 58.6041C15.0626 58.6041 15.5781 58.3944 15.9712 58.0099L21.2833 52.7241Z" fill="black" stroke="black" stroke-width="6" mask="url(#path-1-inside-1)"/>
<mask id="path-2-inside-2" fill="white">
<path d="M33.9869 46.957C26.84 46.957 21.0212 41.1381 21.0212 33.9913C21.0212 26.8445 26.84 21.0344 33.9869 21.0344C41.1337 21.0344 46.9526 26.8532 46.9526 34.0001C46.9526 41.147 41.1337 46.957 33.9869 46.957ZM33.9869 22.7642C27.7924 22.7642 22.7511 27.8055 22.7511 34C22.7511 40.1945 27.7924 45.227 33.9869 45.227C40.1814 45.227 45.2227 40.1858 45.2227 33.9913C45.2227 27.7967 40.1814 22.7642 33.9869 22.7642Z"/>
</mask>
<path d="M33.9869 46.957C26.84 46.957 21.0212 41.1381 21.0212 33.9913C21.0212 26.8445 26.84 21.0344 33.9869 21.0344C41.1337 21.0344 46.9526 26.8532 46.9526 34.0001C46.9526 41.147 41.1337 46.957 33.9869 46.957ZM33.9869 22.7642C27.7924 22.7642 22.7511 27.8055 22.7511 34C22.7511 40.1945 27.7924 45.227 33.9869 45.227C40.1814 45.227 45.2227 40.1858 45.2227 33.9913C45.2227 27.7967 40.1814 22.7642 33.9869 22.7642Z" fill="black"/>
<path d="M33.9869 43.957C28.4969 43.957 24.0212 39.4813 24.0212 33.9913H18.0212C18.0212 42.795 25.1832 49.957 33.9869 49.957V43.957ZM24.0212 33.9913C24.0212 28.504 28.4942 24.0344 33.9869 24.0344V18.0344C25.1858 18.0344 18.0212 25.185 18.0212 33.9913H24.0212ZM33.9869 24.0344C39.4769 24.0344 43.9526 28.5101 43.9526 34.0001H49.9526C49.9526 25.1964 42.7906 18.0344 33.9869 18.0344V24.0344ZM43.9526 34.0001C43.9526 39.4874 39.4795 43.957 33.9869 43.957V49.957C42.7879 49.957 49.9526 42.8065 49.9526 34.0001H43.9526ZM33.9869 19.7642C26.1355 19.7642 19.7511 26.1486 19.7511 34H25.7511C25.7511 29.4623 29.4492 25.7642 33.9869 25.7642V19.7642ZM19.7511 34C19.7511 41.8544 26.1385 48.227 33.9869 48.227V42.227C29.4462 42.227 25.7511 38.5346 25.7511 34H19.7511ZM33.9869 48.227C41.8383 48.227 48.2227 41.8426 48.2227 33.9913H42.2227C42.2227 38.5289 38.5246 42.227 33.9869 42.227V48.227ZM48.2227 33.9913C48.2227 26.1368 41.8352 19.7642 33.9869 19.7642V25.7642C38.5276 25.7642 42.2227 29.4566 42.2227 33.9913H48.2227Z" fill="black" mask="url(#path-2-inside-2)"/>
</svg>
