<svg width="59" height="45" viewBox="0 0 59 45" fill="none" xmlns="http://www.w3.org/2000/svg">
<path d="M4 27.2587H14.3991C15.6495 27.2587 16.5933 28.3933 16.3656 29.6228L14.4839 39.7879C14.2821 40.5459 15.1959 41.0973 15.7725 40.5654L29.6222 27.7887C29.9916 27.448 30.4758 27.2587 30.9783 27.2587H43C44.1046 27.2587 45 26.3633 45 25.2587V4C45 2.89543 44.1046 2 43 2H4C2.89543 2 2 2.89543 2 4V25.2587C2 26.3633 2.89543 27.2587 4 27.2587Z" stroke="black" stroke-width="3" stroke-linecap="round" stroke-linejoin="round"/>
<path d="M50.2121 9.81818H53.7273C55.3841 9.81818 56.7273 11.1613 56.7273 12.8182V31.0903C56.7273 32.7472 55.3841 34.0903 53.7273 34.0903H51.5692C49.9123 34.0903 48.5692 35.4335 48.5692 37.0903V41.7424V41.7424C48.5692 42.826 47.206 43.3065 46.5266 42.4623L40.6885 35.2092C40.119 34.5017 39.2597 34.0903 38.3515 34.0903H27.4091" stroke="black" stroke-width="3" stroke-linecap="round" stroke-linejoin="round"/>
</svg>
